<svg width="16.479" height="21.423" viewBox="0 0 16.479 21.423" fill="#664BFB">
  <path id="Icon_ionic-ios-lock" data-name="Icon ionic-ios-lock" d="M21.169,10.79H19.933v-2.4a4.944,4.944,0,1,0-9.887-.067V10.79H8.81a2.066,2.066,0,0,0-2.06,2.06v9.887A2.066,2.066,0,0,0,8.81,24.8H21.169a2.066,2.066,0,0,0,2.06-2.06V12.85A2.066,2.066,0,0,0,21.169,10.79ZM15.71,17.217V20.76a.738.738,0,0,1-.685.742.722.722,0,0,1-.757-.721V17.217a1.648,1.648,0,1,1,1.442,0Zm2.781-6.427h-7V8.319a3.5,3.5,0,0,1,7,0Z" transform="translate(-6.75 -3.374)" fill="#664bfb"/>
</svg>
