<svg width="21.484" height="18.563" viewBox="0 0 21.484 18.563">
  <path id="Icon_material-visibility-off" data-name="Icon material-visibility-off" d="M12.247,8.408a4.887,4.887,0,0,1,4.885,4.885,4.741,4.741,0,0,1-.352,1.788l2.853,2.853a11.545,11.545,0,0,0,3.351-4.641A11.555,11.555,0,0,0,12.237,5.965a11.377,11.377,0,0,0-3.888.684l2.11,2.11A4.741,4.741,0,0,1,12.247,8.408ZM2.477,5.741,4.7,7.968l.449.449A11.532,11.532,0,0,0,1.5,13.293,11.549,11.549,0,0,0,16.526,19.8l.41.41L19.8,23.063l1.241-1.241L3.718,4.5Zm5.4,5.4,1.514,1.514a2.756,2.756,0,0,0-.078.635,2.927,2.927,0,0,0,2.931,2.931,2.756,2.756,0,0,0,.635-.078L14.4,17.66A4.853,4.853,0,0,1,7.88,11.143Zm4.211-.762,3.077,3.077.02-.156a2.927,2.927,0,0,0-2.931-2.931l-.166.01Z" transform="translate(-1.5 -4.5)" fill="#664bfb"/>
</svg>